<?xml version="1.0" encoding="UTF-8"?>
<svg xmlns="http://www.w3.org/2000/svg" viewBox="0 0 1638.71 542.31">
  <defs>
    <style>
      .cls-1 {
        fill: #5baaff;
      }

      .cls-2 {
        fill: #fff;
      }

      .cls-3 {
        fill: #8a8e99;
      }

      .cls-4 {
        fill: #273063;
      }
    </style>
  </defs>
  <g id="Layer_1" data-name="Layer 1">
    <g>
      <polygon class="cls-4" points="223.56 542.31 131.91 541.11 377.87 82.31 470.25 82.31 223.56 542.31"/>
      <polygon class="cls-4" points="307.16 82.3 263.18 162.3 427.46 162.1 470.25 82.31 307.16 82.3"/>
      <polygon class="cls-1" points="92.3 460 0 460 245.92 .08 338.34 0 92.3 460"/>
      <polygon class="cls-1" points="44.5 376.58 0 460 163.07 460 206.06 377.97 44.5 376.58"/>
      <polygon class="cls-4" points="84.42 82.3 39.22 162.28 145.64 162.28 189.01 82.63 84.42 82.3"/>
      <polygon class="cls-1" points="325.06 377.97 281 460 389.21 460 432.58 378.05 325.06 377.97"/>
    </g>
    <g>
      <path class="cls-4" d="M638.57,185.69l42.12-60.2v-42.49h-162.23v45.76h98.12l-39.56,56.93-12.51,18-46.05,66.26v42.49h162.23v-45.76h-98.78l44.07-62.99,12.59-18Z"/>
      <path class="cls-4" d="M851.43,83l-44.16,96.09-44.48-96.09h-63.46l53.13,102.69,9.31,18,17.04,32.93v75.82h55.94v-75.82l17.04-32.93,9.31-18,53.13-102.69h-62.8Z"/>
      <path class="cls-4" d="M1064.03,221.58c12.99-3.88,23.53-9.84,31.62-17.89,2.37-2.36,4.53-4.89,6.48-7.6,2.4-3.34,4.47-6.81,6.19-10.4,4.49-9.31,6.73-19.46,6.73-30.46,0-13.51-3.16-25.77-9.48-36.77-6.33-11-15.87-19.66-28.62-25.99-12.76-6.31-28.19-9.47-46.28-9.47h-93.88v229.44h55.93v-86.61h13.41l47.76,86.61h63.13l-52.99-90.86ZM992.72,129.41h34.67c10.25,0,17.94,2.51,23.06,7.52,5.13,5.01,7.69,11.88,7.69,20.59,0,9.15-2.56,16.23-7.69,21.24-3.69,3.62-8.73,5.93-15.09,6.93-2.46.4-5.11.59-7.97.59h-34.67v-56.87Z"/>
      <path class="cls-4" d="M1150.05,83v229.44h55.93V83h-55.93Z"/>
      <path class="cls-4" d="M1234.11,83v44.77h60.84v184.67h55.93V127.77h60.83v-44.77h-177.6Z"/>
      <path class="cls-4" d="M1582.77,83v89.88h-87v-89.88h-55.93v229.44h55.93v-94.46h87v94.46h55.94V83h-55.94Z"/>
    </g>
    <g>
      <path class="cls-3" d="M524,341.8v12.43h32.24v104.72h15.36v-104.72h32.06v-12.43h-79.66Z"/>
      <path class="cls-3" d="M706.94,409.37c0-8.41-1.83-15.94-5.48-22.61-3.66-6.67-8.86-11.91-15.61-15.72s-14.52-5.71-23.29-5.71-16.96,1.93-23.88,5.8c-6.92,3.86-12.3,9.38-16.12,16.55-3.83,7.18-5.74,15.52-5.74,25.05s1.97,17.9,5.91,25.13c3.94,7.22,9.37,12.8,16.28,16.72,6.92,3.92,14.77,5.88,23.55,5.88,11.02,0,20.25-2.77,27.68-8.32,7.42-5.54,12.37-12.74,14.85-21.6h-16.54c-1.8,5.16-4.93,9.28-9.37,12.36s-9.99,4.62-16.62,4.62c-8.1,0-15-2.55-20.68-7.65-5.68-5.09-8.8-12.18-9.36-21.26h73.92c.33-3.25.5-6.33.5-9.24ZM632.69,406.17c.78-8.74,3.9-15.57,9.36-20.5,5.46-4.93,12.07-7.4,19.83-7.4,5.4,0,10.32,1.09,14.77,3.28,4.44,2.18,7.96,5.38,10.55,9.58,2.58,4.2,3.88,9.22,3.88,15.04h-58.39Z"/>
      <path class="cls-3" d="M783.39,442.82c-4.5,3.13-10.12,4.7-16.87,4.7-8.78,0-15.87-3.02-21.27-9.08-5.4-6.05-8.1-14.62-8.1-25.71s2.7-19.47,8.1-25.47c5.4-5.99,12.49-8.99,21.27-8.99,6.75,0,12.4,1.63,16.96,4.87,4.55,3.26,7.62,7.68,9.19,13.28h16.54c-2.36-9.75-7.23-17.36-14.59-22.86-7.37-5.48-16.74-8.23-28.1-8.23-8.78,0-16.57,1.96-23.38,5.88s-12.12,9.44-15.95,16.56c-3.82,7.11-5.73,15.43-5.73,24.96s1.91,18.04,5.73,25.21c3.83,7.17,9.14,12.72,15.95,16.64s14.6,5.88,23.38,5.88c11.13,0,20.42-2.82,27.84-8.48,7.43-5.66,12.38-13.2,14.85-22.61h-16.54c-1.68,5.83-4.78,10.31-9.28,13.45Z"/>
      <path class="cls-3" d="M907.69,382.98c-3.21-5.94-7.63-10.4-13.25-13.37-5.63-2.96-11.93-4.45-18.9-4.45s-12.63,1.29-17.98,3.87c-5.34,2.57-9.53,6.21-12.57,10.92v-45.38h-15.36v124.38h15.36v-50.93c0-9.63,2.39-16.98,7.17-22.02,4.78-5.04,11.23-7.56,19.33-7.56s14.28,2.44,18.9,7.31c4.61,4.87,6.92,11.91,6.92,21.09v52.11h15.19v-54.29c0-8.51-1.61-15.74-4.81-21.68Z"/>
      <path class="cls-3" d="M1010.04,375.33c-6.97-6.78-16.09-10.17-27.34-10.17-6.3,0-12.06,1.29-17.3,3.87-5.23,2.57-9.36,6.21-12.4,10.92v-13.11h-15.36v92.11h15.36v-50.93c0-9.63,2.39-16.98,7.17-22.02,4.78-5.04,11.23-7.56,19.33-7.56s14.28,2.44,18.9,7.31c4.61,4.87,6.92,11.91,6.92,21.09v52.11h15.19v-54.29c0-12.77-3.49-22.55-10.47-29.33Z"/>
      <path class="cls-3" d="M1127.25,387.68c-4.11-7.17-9.7-12.69-16.79-16.55-7.09-3.87-15.02-5.8-23.8-5.8s-16.71,1.93-23.79,5.8c-7.09,3.86-12.69,9.41-16.8,16.64-4.1,7.22-6.16,15.55-6.16,24.96s2,17.9,6,25.13c3.99,7.22,9.5,12.8,16.53,16.72s14.88,5.88,23.55,5.88,16.76-1.96,23.96-5.88c7.2-3.92,12.91-9.5,17.13-16.72,4.22-7.23,6.33-15.61,6.33-25.13s-2.05-17.87-6.16-25.05ZM1113.24,431.55c-2.98,5.16-6.89,9.03-11.73,11.6-4.84,2.58-10.01,3.87-15.52,3.87s-10.58-1.26-15.19-3.78c-4.62-2.53-8.3-6.36-11.06-11.52-2.75-5.15-4.13-11.48-4.13-18.99s1.4-13.67,4.22-18.83c2.81-5.15,6.55-8.99,11.22-11.51,4.67-2.52,9.82-3.78,15.44-3.78s10.63,1.26,15.36,3.78c4.73,2.52,8.55,6.36,11.48,11.51,2.92,5.16,4.38,11.43,4.38,18.83s-1.49,13.67-4.47,18.82Z"/>
      <path class="cls-3" d="M1153.66,334.57v124.38h15.36v-124.38h-15.36Z"/>
      <path class="cls-3" d="M1276.77,387.68c-4.11-7.17-9.7-12.69-16.79-16.55-7.09-3.87-15.02-5.8-23.8-5.8s-16.7,1.93-23.79,5.8c-7.09,3.86-12.69,9.41-16.79,16.64-4.11,7.22-6.16,15.55-6.16,24.96s1.99,17.9,5.99,25.13c3.99,7.22,9.5,12.8,16.54,16.72,7.03,3.92,14.87,5.88,23.54,5.88s16.76-1.96,23.96-5.88,12.91-9.5,17.13-16.72c4.22-7.23,6.33-15.61,6.33-25.13s-2.05-17.87-6.16-25.05ZM1262.76,431.55c-2.98,5.16-6.89,9.03-11.72,11.6-4.84,2.58-10.02,3.87-15.53,3.87s-10.58-1.26-15.19-3.78c-4.61-2.53-8.3-6.36-11.05-11.52-2.76-5.15-4.14-11.48-4.14-18.99s1.41-13.67,4.22-18.83c2.81-5.15,6.55-8.99,11.22-11.51,4.67-2.52,9.82-3.78,15.45-3.78s10.63,1.26,15.35,3.78c4.73,2.52,8.55,6.36,11.48,11.51,2.92,5.16,4.39,11.43,4.39,18.83s-1.5,13.67-4.48,18.82Z"/>
      <path class="cls-3" d="M1375.75,366.84v16.81c-2.92-5.27-7.4-9.64-13.41-13.11-6.02-3.47-13.03-5.21-21.01-5.21s-15.67,1.96-22.37,5.88c-6.69,3.92-11.95,9.44-15.78,16.56-3.82,7.11-5.73,15.38-5.73,24.79s1.91,17.59,5.73,24.88c3.83,7.28,9.09,12.94,15.78,16.97,6.7,4.04,14.15,6.05,22.37,6.05s14.96-1.79,20.92-5.38c5.96-3.58,10.47-8.06,13.5-13.44v19.33c0,9.52-2.67,16.92-8.01,22.19-5.35,5.26-12.24,7.9-20.68,7.9-7.42,0-13.78-1.71-19.07-5.13-5.29-3.42-8.77-7.93-10.46-13.53h-15.19c1.46,9.86,6.24,17.65,14.35,23.36,8.1,5.72,18.22,8.57,30.37,8.57,8.89,0,16.68-1.84,23.38-5.54,6.69-3.7,11.84-8.83,15.44-15.38,3.6-6.56,5.4-14.04,5.4-22.44v-94.13h-15.53ZM1371.53,430.96c-2.81,5.22-6.61,9.19-11.39,11.94-4.78,2.75-10.04,4.12-15.78,4.12s-10.97-1.37-15.69-4.12c-4.73-2.75-8.5-6.72-11.31-11.94-2.81-5.21-4.22-11.34-4.22-18.4s1.41-13,4.22-18.15c2.81-5.16,6.58-9.08,11.31-11.77,4.72-2.69,9.95-4.03,15.69-4.03s11,1.37,15.78,4.11c4.78,2.75,8.58,6.7,11.39,11.85,2.81,5.16,4.22,11.21,4.22,18.16s-1.41,13.02-4.22,18.23Z"/>
      <path class="cls-3" d="M1417.27,366.84v92.11h15.36v-92.11h-15.36ZM1432.37,334.06c-1.97-2.01-4.36-3.02-7.17-3.02s-5.4,1.01-7.43,3.02c-2.02,2.02-3.03,4.49-3.03,7.4s1.01,5.38,3.03,7.4c2.03,2.01,4.5,3.02,7.43,3.02s5.2-1.01,7.17-3.02c1.97-2.02,2.96-4.49,2.96-7.4s-.99-5.38-2.96-7.4Z"/>
      <path class="cls-3" d="M1543.16,409.37c0-8.41-1.83-15.94-5.48-22.61-3.66-6.67-8.86-11.91-15.61-15.72s-14.52-5.71-23.29-5.71-16.96,1.93-23.88,5.8c-6.92,3.86-12.29,9.38-16.12,16.55-3.82,7.18-5.74,15.52-5.74,25.05s1.97,17.9,5.91,25.13c3.94,7.22,9.37,12.8,16.29,16.72s14.76,5.88,23.54,5.88c11.02,0,20.25-2.77,27.68-8.32,7.42-5.54,12.37-12.74,14.85-21.6h-16.54c-1.8,5.16-4.92,9.28-9.37,12.36-4.44,3.08-9.98,4.62-16.62,4.62-8.1,0-14.99-2.55-20.67-7.65-5.69-5.09-8.81-12.18-9.37-21.26h73.92c.34-3.25.5-6.33.5-9.24ZM1468.91,406.17c.78-8.74,3.91-15.57,9.36-20.5,5.46-4.93,12.07-7.4,19.83-7.4,5.4,0,10.32,1.09,14.77,3.28,4.44,2.18,7.96,5.38,10.55,9.58,2.59,4.2,3.88,9.22,3.88,15.04h-58.39Z"/>
      <path class="cls-3" d="M1625.27,420.29c-2.98-3.47-6.56-6.08-10.72-7.81-4.16-1.74-9.56-3.51-16.2-5.3-5.29-1.45-9.42-2.77-12.4-3.95-2.99-1.18-5.46-2.74-7.43-4.71-1.97-1.95-2.95-4.45-2.95-7.48,0-3.8,1.63-6.89,4.89-9.24,3.26-2.35,7.65-3.53,13.17-3.53,5.96,0,10.71,1.46,14.26,4.37,3.54,2.92,5.48,6.78,5.82,11.6h15.36c-.45-8.97-3.83-16.03-10.13-21.18-6.3-5.15-14.57-7.73-24.81-7.73-6.64,0-12.55,1.15-17.72,3.44-5.17,2.3-9.17,5.41-11.98,9.33-2.82,3.93-4.22,8.24-4.22,12.94,0,5.95,1.54,10.74,4.64,14.38,3.09,3.64,6.81,6.38,11.14,8.23s9.93,3.67,16.79,5.47c7.54,1.9,13.11,3.83,16.71,5.79,3.6,1.97,5.4,4.96,5.4,9s-1.69,7.17-5.06,9.75c-3.38,2.57-7.99,3.86-13.84,3.86-6.3,0-11.39-1.45-15.28-4.37-3.88-2.91-6.04-6.66-6.49-11.26h-15.87c.34,5.6,2.14,10.56,5.4,14.87,3.27,4.32,7.71,7.68,13.34,10.09,5.62,2.41,11.98,3.61,19.07,3.61,6.63,0,12.51-1.15,17.63-3.44,5.12-2.3,9.09-5.46,11.9-9.5,2.81-4.03,4.22-8.57,4.22-13.61-.11-5.61-1.66-10.14-4.64-13.62Z"/>
    </g>
  </g>
  <g id="Dimensions">
    <polygon class="cls-2" points="638.57 185.69 625.98 203.69 564.38 203.69 576.89 185.69 638.57 185.69"/>
    <polygon class="cls-2" points="861.1 185.69 851.79 203.69 761.77 203.69 752.46 185.69 861.1 185.69"/>
    <path class="cls-2" d="M1108.32,185.69c-1.72,3.59-3.79,7.06-6.19,10.4-1.95,2.71-4.11,5.24-6.48,7.6h-158.86v-18h171.53Z"/>
    <rect class="cls-2" x="1150.05" y="185.69" width="55.93" height="18"/>
    <rect class="cls-2" x="1294.95" y="185.69" width="55.93" height="18"/>
    <rect class="cls-2" x="1439.84" y="185.69" width="198.78" height="18"/>
  </g>
</svg>