<?xml version="1.0" encoding="UTF-8"?>
<svg xmlns="http://www.w3.org/2000/svg" viewBox="0 0 1681.08 572.97">
  <defs>
    <style>
      .cls-1 {
        fill: #fff;
      }

      .cls-2 {
        fill: #fdfcfb;
      }
    </style>
  </defs>
  <g id="Layer_1" data-name="Layer 1">
    <g>
      <polygon class="cls-1" points="240.56 558.83 148.91 557.63 394.87 98.83 487.25 98.83 240.56 558.83"/>
      <polygon class="cls-1" points="324.16 98.82 280.18 178.81 444.46 178.61 487.25 98.83 324.16 98.82"/>
      <polygon class="cls-1" points="109.3 476.52 17 476.52 262.92 16.6 355.34 16.52 109.3 476.52"/>
      <polygon class="cls-1" points="61.5 393.1 17 476.52 180.07 476.52 223.06 394.48 61.5 393.1"/>
      <polygon class="cls-1" points="101.42 98.82 56.22 178.8 162.64 178.8 206.01 99.15 101.42 98.82"/>
      <polygon class="cls-1" points="342.06 394.48 298 476.52 406.21 476.52 449.58 394.57 342.06 394.48"/>
    </g>
    <g>
      <path class="cls-1" d="M656.32,201.14l41.38-59.14v-42.49h-162.24v45.76h98.13l-38.83,55.87-13.98,20.11-45.32,65.21v42.49h162.24v-45.76h-98.78l43.33-61.94,14.07-20.11Z"/>
      <path class="cls-1" d="M868.43,99.51l-44.15,96.09-44.49-96.09h-63.45l52.58,101.63,10.41,20.11,16.49,31.88v75.82h55.93v-75.82l16.49-31.88,10.41-20.11,52.58-101.63h-62.8Z"/>
      <path class="cls-1" d="M1081.03,238.09c12.42-3.7,22.6-9.32,30.54-16.84,2.8-2.64,5.32-5.53,7.57-8.65,2.63-3.66,4.86-7.49,6.69-11.46,4.15-9.01,6.23-18.81,6.23-29.4,0-13.51-3.17-25.77-9.49-36.77-6.32-11-15.86-19.66-28.62-25.99-12.75-6.31-28.18-9.47-46.28-9.47h-93.87v229.44h55.93v-86.61h13.41l47.75,86.61h63.13l-52.99-90.86ZM1009.73,145.92h34.67c10.25,0,17.93,2.51,23.06,7.52,5.12,5.01,7.69,11.88,7.69,20.59,0,9.15-2.57,16.23-7.69,21.24-2.73,2.68-6.19,4.64-10.38,5.87-3.67,1.11-7.9,1.65-12.68,1.65h-34.67v-56.87Z"/>
      <path class="cls-1" d="M1167.05,99.51v229.44h55.94V99.51h-55.94Z"/>
      <path class="cls-1" d="M1251.11,99.51v44.77h60.84v184.67h55.93v-184.67h60.84v-44.77h-177.61Z"/>
      <path class="cls-1" d="M1599.78,99.51v89.88h-87v-89.88h-55.93v229.44h55.93v-94.46h87v94.46h55.93V99.51h-55.93Z"/>
    </g>
    <g>
      <path class="cls-2" d="M541,358.31v12.43h32.24v104.72h15.36v-104.72h32.06v-12.43h-79.66Z"/>
      <path class="cls-2" d="M723.94,425.88c0-8.41-1.83-15.94-5.48-22.61-3.66-6.67-8.86-11.91-15.61-15.72s-14.52-5.71-23.29-5.71-16.96,1.93-23.88,5.8c-6.92,3.86-12.3,9.38-16.12,16.55-3.83,7.18-5.74,15.52-5.74,25.05s1.97,17.9,5.91,25.13c3.94,7.22,9.37,12.8,16.28,16.72,6.92,3.92,14.77,5.88,23.55,5.88,11.02,0,20.25-2.77,27.67-8.32,7.43-5.54,12.38-12.74,14.86-21.6h-16.54c-1.8,5.16-4.93,9.28-9.37,12.36-4.45,3.08-9.99,4.62-16.62,4.62-8.1,0-15-2.55-20.68-7.65-5.68-5.09-8.8-12.18-9.36-21.26h73.92c.33-3.25.5-6.33.5-9.24ZM649.69,422.68c.78-8.74,3.9-15.57,9.36-20.5,5.46-4.93,12.07-7.4,19.83-7.4,5.4,0,10.32,1.09,14.77,3.28,4.44,2.18,7.96,5.38,10.55,9.58,2.58,4.2,3.88,9.22,3.88,15.04h-58.39Z"/>
      <path class="cls-2" d="M800.39,459.33c-4.5,3.13-10.12,4.7-16.88,4.7-8.77,0-15.86-3.02-21.26-9.08-5.4-6.05-8.1-14.62-8.1-25.71s2.7-19.47,8.1-25.47c5.4-5.99,12.49-8.99,21.26-8.99,6.76,0,12.41,1.63,16.97,4.87,4.55,3.26,7.62,7.68,9.19,13.28h16.54c-2.36-9.75-7.23-17.36-14.6-22.86-7.37-5.48-16.73-8.23-28.1-8.23-8.77,0-16.56,1.96-23.37,5.88s-12.12,9.44-15.95,16.56c-3.82,7.11-5.73,15.43-5.73,24.96s1.91,18.04,5.73,25.21c3.83,7.17,9.14,12.72,15.95,16.64s14.6,5.88,23.37,5.88c11.14,0,20.43-2.82,27.85-8.48,7.43-5.66,12.38-13.2,14.85-22.61h-16.54c-1.68,5.83-4.78,10.31-9.28,13.45Z"/>
      <path class="cls-2" d="M924.68,399.49c-3.2-5.94-7.62-10.4-13.24-13.37-5.63-2.96-11.93-4.45-18.9-4.45s-12.64,1.29-17.98,3.87c-5.34,2.57-9.53,6.21-12.57,10.92v-45.38h-15.36v124.38h15.36v-50.93c0-9.63,2.39-16.98,7.17-22.02,4.78-5.04,11.22-7.56,19.33-7.56s14.28,2.44,18.9,7.31c4.61,4.87,6.92,11.91,6.92,21.09v52.11h15.19v-54.29c0-8.51-1.61-15.74-4.82-21.68Z"/>
      <path class="cls-2" d="M1027.04,391.84c-6.98-6.78-16.09-10.17-27.34-10.17-6.3,0-12.07,1.29-17.3,3.87-5.23,2.57-9.36,6.21-12.4,10.92v-13.11h-15.36v92.11h15.36v-50.93c0-9.63,2.39-16.98,7.17-22.02,4.78-5.04,11.22-7.56,19.33-7.56s14.28,2.44,18.9,7.31c4.61,4.87,6.92,11.91,6.92,21.09v52.11h15.18v-54.29c0-12.77-3.48-22.55-10.46-29.33Z"/>
      <path class="cls-2" d="M1144.25,404.19c-4.11-7.17-9.71-12.69-16.79-16.55-7.09-3.87-15.02-5.8-23.8-5.8s-16.71,1.93-23.8,5.8c-7.08,3.86-12.68,9.41-16.79,16.64-4.11,7.22-6.16,15.55-6.16,24.96s2,17.9,5.99,25.13c4,7.22,9.51,12.8,16.54,16.72s14.88,5.88,23.54,5.88,16.77-1.96,23.97-5.88,12.91-9.5,17.13-16.72c4.22-7.23,6.33-15.61,6.33-25.13s-2.06-17.87-6.16-25.05ZM1130.24,448.06c-2.98,5.16-6.89,9.03-11.73,11.6-4.84,2.58-10.01,3.87-15.53,3.87s-10.57-1.26-15.18-3.78c-4.62-2.53-8.3-6.36-11.06-11.52-2.76-5.15-4.13-11.48-4.13-18.99s1.4-13.67,4.22-18.83c2.81-5.15,6.55-8.99,11.22-11.51,4.67-2.52,9.81-3.78,15.44-3.78s10.63,1.26,15.36,3.78c4.72,2.52,8.55,6.36,11.47,11.51,2.93,5.16,4.39,11.43,4.39,18.83s-1.49,13.67-4.47,18.82Z"/>
      <path class="cls-2" d="M1170.66,351.08v124.38h15.36v-124.38h-15.36Z"/>
      <path class="cls-2" d="M1293.77,404.19c-4.11-7.17-9.7-12.69-16.79-16.55-7.09-3.87-15.02-5.8-23.8-5.8s-16.71,1.93-23.79,5.8c-7.09,3.86-12.69,9.41-16.8,16.64-4.1,7.22-6.16,15.55-6.16,24.96s2,17.9,6,25.13c3.99,7.22,9.5,12.8,16.53,16.72,7.04,3.92,14.88,5.88,23.55,5.88s16.76-1.96,23.96-5.88,12.91-9.5,17.13-16.72c4.22-7.23,6.33-15.61,6.33-25.13s-2.05-17.87-6.16-25.05ZM1279.76,448.06c-2.98,5.16-6.89,9.03-11.73,11.6-4.84,2.58-10.01,3.87-15.52,3.87s-10.58-1.26-15.19-3.78c-4.62-2.53-8.3-6.36-11.06-11.52-2.75-5.15-4.13-11.48-4.13-18.99s1.41-13.67,4.22-18.83c2.81-5.15,6.55-8.99,11.22-11.51,4.67-2.52,9.82-3.78,15.44-3.78s10.64,1.26,15.36,3.78c4.73,2.52,8.55,6.36,11.48,11.51,2.92,5.16,4.38,11.43,4.38,18.83s-1.49,13.67-4.47,18.82Z"/>
      <path class="cls-2" d="M1392.75,383.35v16.81c-2.93-5.27-7.4-9.64-13.42-13.11-6.02-3.47-13.02-5.21-21.01-5.21s-15.67,1.96-22.36,5.88-11.96,9.44-15.78,16.56c-3.82,7.11-5.74,15.38-5.74,24.79s1.92,17.59,5.74,24.88c3.82,7.28,9.09,12.94,15.78,16.97,6.69,4.04,14.15,6.05,22.36,6.05s14.96-1.79,20.93-5.38c5.96-3.58,10.46-8.06,13.5-13.44v19.33c0,9.52-2.67,16.92-8.02,22.19-5.34,5.26-12.23,7.9-20.67,7.9-7.43,0-13.78-1.71-19.07-5.13-5.29-3.42-8.78-7.93-10.46-13.53h-15.19c1.46,9.86,6.24,17.65,14.34,23.36,8.1,5.72,18.23,8.57,30.38,8.57,8.89,0,16.68-1.84,23.37-5.54,6.7-3.7,11.84-8.83,15.45-15.38,3.6-6.56,5.4-14.04,5.4-22.44v-94.13h-15.53ZM1388.53,447.47c-2.81,5.22-6.61,9.19-11.39,11.94s-10.04,4.12-15.78,4.12-10.97-1.37-15.69-4.12c-4.73-2.75-8.5-6.72-11.31-11.94-2.82-5.21-4.22-11.34-4.22-18.4s1.4-13,4.22-18.15c2.81-5.16,6.58-9.08,11.31-11.77,4.72-2.69,9.95-4.03,15.69-4.03s11,1.37,15.78,4.11c4.78,2.75,8.58,6.7,11.39,11.85,2.81,5.16,4.22,11.21,4.22,18.16s-1.41,13.02-4.22,18.23Z"/>
      <path class="cls-2" d="M1434.26,383.35v92.11h15.36v-92.11h-15.36ZM1449.37,350.57c-1.97-2.01-4.36-3.02-7.17-3.02s-5.4,1.01-7.43,3.02c-2.02,2.02-3.04,4.49-3.04,7.4s1.02,5.38,3.04,7.4c2.03,2.01,4.5,3.02,7.43,3.02s5.2-1.01,7.17-3.02c1.97-2.02,2.95-4.49,2.95-7.4s-.98-5.38-2.95-7.4Z"/>
      <path class="cls-2" d="M1560.16,425.88c0-8.41-1.83-15.94-5.48-22.61-3.66-6.67-8.86-11.91-15.61-15.72s-14.52-5.71-23.29-5.71-16.96,1.93-23.88,5.8c-6.92,3.86-12.3,9.38-16.12,16.55-3.83,7.18-5.74,15.52-5.74,25.05s1.97,17.9,5.91,25.13c3.93,7.22,9.36,12.8,16.28,16.72s14.77,5.88,23.55,5.88c11.02,0,20.25-2.77,27.67-8.32,7.43-5.54,12.38-12.74,14.85-21.6h-16.53c-1.81,5.16-4.93,9.28-9.37,12.36-4.45,3.08-9.99,4.62-16.62,4.62-8.1,0-15-2.55-20.68-7.65-5.68-5.09-8.8-12.18-9.36-21.26h73.91c.34-3.25.51-6.33.51-9.24ZM1485.91,422.68c.78-8.74,3.9-15.57,9.36-20.5,5.46-4.93,12.07-7.4,19.83-7.4,5.4,0,10.32,1.09,14.77,3.28,4.44,2.18,7.96,5.38,10.55,9.58,2.58,4.2,3.88,9.22,3.88,15.04h-58.39Z"/>
      <path class="cls-2" d="M1642.26,436.8c-2.98-3.47-6.55-6.08-10.71-7.81-4.17-1.74-9.57-3.51-16.2-5.3-5.29-1.45-9.43-2.77-12.41-3.95s-5.46-2.74-7.42-4.71c-1.97-1.95-2.96-4.45-2.96-7.48,0-3.8,1.63-6.89,4.9-9.24,3.26-2.35,7.65-3.53,13.16-3.53,5.96,0,10.72,1.46,14.26,4.37,3.54,2.92,5.49,6.78,5.82,11.6h15.36c-.45-8.97-3.83-16.03-10.12-21.18-6.31-5.15-14.58-7.73-24.81-7.73-6.64,0-12.55,1.15-17.72,3.44-5.18,2.3-9.17,5.41-11.99,9.33-2.81,3.93-4.21,8.24-4.21,12.94,0,5.95,1.54,10.74,4.64,14.38,3.09,3.64,6.8,6.38,11.13,8.23s9.93,3.67,16.8,5.47c7.53,1.9,13.1,3.83,16.7,5.79,3.6,1.97,5.4,4.96,5.4,9s-1.68,7.17-5.06,9.75c-3.37,2.57-7.99,3.86-13.84,3.86-6.3,0-11.39-1.45-15.27-4.37-3.88-2.91-6.05-6.66-6.5-11.26h-15.86c.34,5.6,2.13,10.56,5.4,14.87,3.26,4.32,7.7,7.68,13.33,10.09,5.63,2.41,11.98,3.61,19.07,3.61,6.64,0,12.52-1.15,17.64-3.44,5.12-2.3,9.08-5.46,11.9-9.5,2.81-4.03,4.22-8.57,4.22-13.61-.12-5.61-1.67-10.14-4.65-13.62Z"/>
    </g>
  </g>
  <g id="Dimensions">
    <polygon points="594.76 201.14 656.32 201.14 642.25 221.25 580.78 221.25 594.76 201.14"/>
    <polygon points="768.92 201.14 878.65 201.14 868.24 221.25 779.33 221.25 768.92 201.14"/>
    <path d="M1125.83,201.14c-1.83,3.97-4.06,7.8-6.69,11.46-2.25,3.12-4.77,6.01-7.57,8.65h-157.77v-20.11h172.03Z"/>
    <rect x="1167.05" y="201.14" width="55.94" height="20.11"/>
    <rect x="1311.95" y="201.14" width="55.93" height="20.11"/>
    <rect x="1456.85" y="201.14" width="198.86" height="20.11"/>
  </g>
</svg>