<?xml version="1.0" encoding="UTF-8"?>
<svg id="Layer_1" data-name="Layer 1" xmlns="http://www.w3.org/2000/svg" viewBox="0 0 510.14 572.97">
  <defs>
    <style>
      .cls-1 {
        fill: #5baaff;
      }

      .cls-2 {
        fill: #273063;
      }
    </style>
  </defs>
  <polygon class="cls-2" points="240.56 558.83 148.91 557.63 394.87 98.83 487.25 98.83 240.56 558.83"/>
  <polygon class="cls-2" points="324.16 98.82 280.18 178.81 444.46 178.61 487.25 98.83 324.16 98.82"/>
  <polygon class="cls-1" points="109.3 476.52 17 476.52 262.92 16.6 355.34 16.52 109.3 476.52"/>
  <polygon class="cls-1" points="61.5 393.1 17 476.52 180.07 476.52 223.06 394.48 61.5 393.1"/>
  <polygon class="cls-2" points="101.42 98.82 56.22 178.8 162.64 178.8 206.01 99.15 101.42 98.82"/>
  <polygon class="cls-1" points="342.06 394.48 298 476.52 406.21 476.52 449.58 394.57 342.06 394.48"/>
</svg>